<svg width="58" height="58" viewBox="0 0 58 58" fill="none" xmlns="http://www.w3.org/2000/svg">
<path d="M16.4201 26L17.6204 22.4134H23.0892L24.2966 26H27.1091L21.9812 11.4545H18.7284L13.6076 26H16.4201ZM18.3306 20.2969L20.298 14.4375H20.4116L22.3789 20.2969H18.3306ZM37.7539 26C42.1857 26 44.8135 23.2585 44.8135 18.7131C44.8135 14.1818 42.1857 11.4545 37.8533 11.4545H32.8249V26H37.7539ZM35.4598 23.7202V13.7344H37.7042C40.6587 13.7344 42.1999 15.3821 42.1999 18.7131C42.1999 22.0582 40.6587 23.7202 37.626 23.7202H35.4598ZM12.5601 31.4545V46H15.0885V35.9858H15.2234L19.2433 45.9574H21.1325L25.1524 36.0071H25.2873V46H27.8157V31.4545H24.5913L20.2731 41.9943H20.1027L15.7845 31.4545H12.5601ZM46.4382 31.4545H43.8174V41.3693H43.6896L36.843 31.4545H34.485V46H37.12V36.0923H37.2407L44.0944 46H46.4382V31.4545Z" fill="white"/>
<rect x="2" y="2" width="54" height="54" stroke="white" stroke-width="4"/>
</svg>
