<svg width="40" height="20" viewBox="0 0 40 20" fill="none" xmlns="http://www.w3.org/2000/svg">
<path d="M11.2327 14.7852C11.2327 15.403 11.1142 15.9827 10.8772 16.5244C10.6487 17.0661 10.3313 17.54 9.92505 17.9463C9.5188 18.3525 9.04484 18.6742 8.50317 18.9111C7.96151 19.1396 7.38175 19.2539 6.76392 19.2539H5.46899C4.85116 19.2539 4.26717 19.1396 3.71704 18.9111C3.17537 18.6742 2.70142 18.3525 2.29517 17.9463C1.88892 17.54 1.5673 17.0661 1.33032 16.5244C1.10181 15.9827 0.987549 15.403 0.987549 14.7852V5.00977C0.987549 4.39193 1.10181 3.81217 1.33032 3.27051C1.5673 2.72884 1.88892 2.25488 2.29517 1.84863C2.70142 1.44238 3.17537 1.125 3.71704 0.896484C4.26717 0.659505 4.85116 0.541016 5.46899 0.541016H6.76392C7.38175 0.541016 7.96151 0.659505 8.50317 0.896484C9.04484 1.125 9.5188 1.44238 9.92505 1.84863C10.3313 2.25488 10.6487 2.72884 10.8772 3.27051C11.1142 3.81217 11.2327 4.39193 11.2327 5.00977V14.7852ZM9.59497 5.00977C9.59497 4.60352 9.5188 4.22689 9.36646 3.87988C9.21411 3.52441 9.00675 3.21549 8.74438 2.95312C8.48201 2.69076 8.1731 2.4834 7.81763 2.33105C7.47062 2.17871 7.09399 2.10254 6.68774 2.10254H5.54517C5.13892 2.10254 4.75806 2.17871 4.40259 2.33105C4.05558 2.4834 3.74666 2.69076 3.47583 2.95312C3.21346 3.21549 3.0061 3.52441 2.85376 3.87988C2.70142 4.22689 2.62524 4.60352 2.62524 5.00977V14.7852C2.62524 15.1914 2.70142 15.5723 2.85376 15.9277C3.0061 16.2747 3.21346 16.5837 3.47583 16.8545C3.74666 17.1169 4.05558 17.3242 4.40259 17.4766C4.75806 17.6289 5.13892 17.7051 5.54517 17.7051H6.68774C7.09399 17.7051 7.47062 17.6289 7.81763 17.4766C8.1731 17.3242 8.48201 17.1169 8.74438 16.8545C9.00675 16.5837 9.21411 16.2747 9.36646 15.9277C9.5188 15.5723 9.59497 15.1914 9.59497 14.7852V5.00977ZM25.3879 14.5312C25.3879 15.1491 25.2694 15.7288 25.0325 16.2705C24.804 16.8122 24.4866 17.2861 24.0803 17.6924C23.6741 18.0986 23.1959 18.4202 22.6458 18.6572C22.1041 18.8857 21.5243 19 20.9065 19H15.1428V0.794922H20.9065C21.5243 0.794922 22.1041 0.913411 22.6458 1.15039C23.1959 1.37891 23.6741 1.69629 24.0803 2.10254C24.4866 2.50879 24.804 2.98698 25.0325 3.53711C25.2694 4.07878 25.3879 4.65853 25.3879 5.27637V14.5312ZM23.7502 5.27637C23.7502 4.87012 23.6741 4.49349 23.5217 4.14648C23.3694 3.79102 23.1578 3.4821 22.887 3.21973C22.6246 2.94889 22.3157 2.7373 21.9602 2.58496C21.6132 2.43262 21.2366 2.35645 20.8303 2.35645H16.7805V17.4385H20.8303C21.2366 17.4385 21.6132 17.3623 21.9602 17.21C22.3157 17.0576 22.6246 16.8503 22.887 16.5879C23.1578 16.3255 23.3694 16.0208 23.5217 15.6738C23.6741 15.3184 23.7502 14.9375 23.7502 14.5312V5.27637ZM38.6672 19L31.0754 5.74609L30.9231 4.95898V19H29.2854V0.794922H30.136L37.7278 14.0615L37.8928 14.8359V0.794922H39.5305V19H38.6672Z" fill="white"/>
</svg>
